<mxfile host="app.diagrams.net" modified="2020-10-25T17:02:32.378Z" agent="5.0 (Macintosh; Intel Mac OS X 10_15_6) AppleWebKit/605.1.15 (KHTML, like Gecko) Version/14.0 Safari/605.1.15" etag="C603GKKmDTYY_YsIjZza" version="13.8.1" type="github">
  <diagram id="L4T1oNsCPsh1Rm2vbtaS" name="Page-1">
    <mxGraphModel dx="879" dy="575" grid="1" gridSize="10" guides="1" tooltips="1" connect="1" arrows="1" fold="1" page="1" pageScale="1" pageWidth="827" pageHeight="1169" math="0" shadow="0">
      <root>
        <mxCell id="0" />
        <mxCell id="1" parent="0" />
        <mxCell id="aOta-lxbxDsszLZLmQ7L-1" value="Crime" style="shape=table;startSize=30;container=1;collapsible=1;childLayout=tableLayout;fixedRows=1;rowLines=0;fontStyle=1;align=center;resizeLast=1;" vertex="1" parent="1">
          <mxGeometry x="160" y="40" width="180" height="310" as="geometry" />
        </mxCell>
        <mxCell id="aOta-lxbxDsszLZLmQ7L-2" value="" style="shape=partialRectangle;collapsible=0;dropTarget=0;pointerEvents=0;fillColor=none;top=0;left=0;bottom=1;right=0;points=[[0,0.5],[1,0.5]];portConstraint=eastwest;" vertex="1" parent="aOta-lxbxDsszLZLmQ7L-1">
          <mxGeometry y="30" width="180" height="30" as="geometry" />
        </mxCell>
        <mxCell id="aOta-lxbxDsszLZLmQ7L-3" value="PK" style="shape=partialRectangle;connectable=0;fillColor=none;top=0;left=0;bottom=0;right=0;fontStyle=1;overflow=hidden;" vertex="1" parent="aOta-lxbxDsszLZLmQ7L-2">
          <mxGeometry width="30" height="30" as="geometry" />
        </mxCell>
        <mxCell id="aOta-lxbxDsszLZLmQ7L-4" value="ObjectID" style="shape=partialRectangle;connectable=0;fillColor=none;top=0;left=0;bottom=0;right=0;align=left;spacingLeft=6;fontStyle=5;overflow=hidden;" vertex="1" parent="aOta-lxbxDsszLZLmQ7L-2">
          <mxGeometry x="30" width="150" height="30" as="geometry" />
        </mxCell>
        <mxCell id="aOta-lxbxDsszLZLmQ7L-5" value="" style="shape=partialRectangle;collapsible=0;dropTarget=0;pointerEvents=0;fillColor=none;top=0;left=0;bottom=0;right=0;points=[[0,0.5],[1,0.5]];portConstraint=eastwest;" vertex="1" parent="aOta-lxbxDsszLZLmQ7L-1">
          <mxGeometry y="60" width="180" height="30" as="geometry" />
        </mxCell>
        <mxCell id="aOta-lxbxDsszLZLmQ7L-6" value="" style="shape=partialRectangle;connectable=0;fillColor=none;top=0;left=0;bottom=0;right=0;editable=1;overflow=hidden;" vertex="1" parent="aOta-lxbxDsszLZLmQ7L-5">
          <mxGeometry width="30" height="30" as="geometry" />
        </mxCell>
        <mxCell id="aOta-lxbxDsszLZLmQ7L-7" value="District" style="shape=partialRectangle;connectable=0;fillColor=none;top=0;left=0;bottom=0;right=0;align=left;spacingLeft=6;overflow=hidden;" vertex="1" parent="aOta-lxbxDsszLZLmQ7L-5">
          <mxGeometry x="30" width="150" height="30" as="geometry" />
        </mxCell>
        <mxCell id="aOta-lxbxDsszLZLmQ7L-8" value="" style="shape=partialRectangle;collapsible=0;dropTarget=0;pointerEvents=0;fillColor=none;top=0;left=0;bottom=0;right=0;points=[[0,0.5],[1,0.5]];portConstraint=eastwest;" vertex="1" parent="aOta-lxbxDsszLZLmQ7L-1">
          <mxGeometry y="90" width="180" height="30" as="geometry" />
        </mxCell>
        <mxCell id="aOta-lxbxDsszLZLmQ7L-9" value="" style="shape=partialRectangle;connectable=0;fillColor=none;top=0;left=0;bottom=0;right=0;editable=1;overflow=hidden;" vertex="1" parent="aOta-lxbxDsszLZLmQ7L-8">
          <mxGeometry width="30" height="30" as="geometry" />
        </mxCell>
        <mxCell id="aOta-lxbxDsszLZLmQ7L-10" value="Date" style="shape=partialRectangle;connectable=0;fillColor=none;top=0;left=0;bottom=0;right=0;align=left;spacingLeft=6;overflow=hidden;" vertex="1" parent="aOta-lxbxDsszLZLmQ7L-8">
          <mxGeometry x="30" width="150" height="30" as="geometry" />
        </mxCell>
        <mxCell id="aOta-lxbxDsszLZLmQ7L-11" value="" style="shape=partialRectangle;collapsible=0;dropTarget=0;pointerEvents=0;fillColor=none;top=0;left=0;bottom=0;right=0;points=[[0,0.5],[1,0.5]];portConstraint=eastwest;" vertex="1" parent="aOta-lxbxDsszLZLmQ7L-1">
          <mxGeometry y="120" width="180" height="30" as="geometry" />
        </mxCell>
        <mxCell id="aOta-lxbxDsszLZLmQ7L-12" value="" style="shape=partialRectangle;connectable=0;fillColor=none;top=0;left=0;bottom=0;right=0;editable=1;overflow=hidden;" vertex="1" parent="aOta-lxbxDsszLZLmQ7L-11">
          <mxGeometry width="30" height="30" as="geometry" />
        </mxCell>
        <mxCell id="aOta-lxbxDsszLZLmQ7L-13" value="TIme" style="shape=partialRectangle;connectable=0;fillColor=none;top=0;left=0;bottom=0;right=0;align=left;spacingLeft=6;overflow=hidden;" vertex="1" parent="aOta-lxbxDsszLZLmQ7L-11">
          <mxGeometry x="30" width="150" height="30" as="geometry" />
        </mxCell>
        <mxCell id="aOta-lxbxDsszLZLmQ7L-14" style="shape=partialRectangle;collapsible=0;dropTarget=0;pointerEvents=0;fillColor=none;top=0;left=0;bottom=0;right=0;points=[[0,0.5],[1,0.5]];portConstraint=eastwest;" vertex="1" parent="aOta-lxbxDsszLZLmQ7L-1">
          <mxGeometry y="150" width="180" height="30" as="geometry" />
        </mxCell>
        <mxCell id="aOta-lxbxDsszLZLmQ7L-15" style="shape=partialRectangle;connectable=0;fillColor=none;top=0;left=0;bottom=0;right=0;editable=1;overflow=hidden;" vertex="1" parent="aOta-lxbxDsszLZLmQ7L-14">
          <mxGeometry width="30" height="30" as="geometry" />
        </mxCell>
        <mxCell id="aOta-lxbxDsszLZLmQ7L-16" value="Address" style="shape=partialRectangle;connectable=0;fillColor=none;top=0;left=0;bottom=0;right=0;align=left;spacingLeft=6;overflow=hidden;" vertex="1" parent="aOta-lxbxDsszLZLmQ7L-14">
          <mxGeometry x="30" width="150" height="30" as="geometry" />
        </mxCell>
        <mxCell id="aOta-lxbxDsszLZLmQ7L-17" style="shape=partialRectangle;collapsible=0;dropTarget=0;pointerEvents=0;fillColor=none;top=0;left=0;bottom=0;right=0;points=[[0,0.5],[1,0.5]];portConstraint=eastwest;" vertex="1" parent="aOta-lxbxDsszLZLmQ7L-1">
          <mxGeometry y="180" width="180" height="30" as="geometry" />
        </mxCell>
        <mxCell id="aOta-lxbxDsszLZLmQ7L-18" style="shape=partialRectangle;connectable=0;fillColor=none;top=0;left=0;bottom=0;right=0;editable=1;overflow=hidden;" vertex="1" parent="aOta-lxbxDsszLZLmQ7L-17">
          <mxGeometry width="30" height="30" as="geometry" />
        </mxCell>
        <mxCell id="aOta-lxbxDsszLZLmQ7L-19" value="LongitudeÂ " style="shape=partialRectangle;connectable=0;fillColor=none;top=0;left=0;bottom=0;right=0;align=left;spacingLeft=6;overflow=hidden;" vertex="1" parent="aOta-lxbxDsszLZLmQ7L-17">
          <mxGeometry x="30" width="150" height="30" as="geometry" />
        </mxCell>
        <mxCell id="aOta-lxbxDsszLZLmQ7L-20" style="shape=partialRectangle;collapsible=0;dropTarget=0;pointerEvents=0;fillColor=none;top=0;left=0;bottom=0;right=0;points=[[0,0.5],[1,0.5]];portConstraint=eastwest;" vertex="1" parent="aOta-lxbxDsszLZLmQ7L-1">
          <mxGeometry y="210" width="180" height="30" as="geometry" />
        </mxCell>
        <mxCell id="aOta-lxbxDsszLZLmQ7L-21" style="shape=partialRectangle;connectable=0;fillColor=none;top=0;left=0;bottom=0;right=0;editable=1;overflow=hidden;" vertex="1" parent="aOta-lxbxDsszLZLmQ7L-20">
          <mxGeometry width="30" height="30" as="geometry" />
        </mxCell>
        <mxCell id="aOta-lxbxDsszLZLmQ7L-22" value="Latitude" style="shape=partialRectangle;connectable=0;fillColor=none;top=0;left=0;bottom=0;right=0;align=left;spacingLeft=6;overflow=hidden;" vertex="1" parent="aOta-lxbxDsszLZLmQ7L-20">
          <mxGeometry x="30" width="150" height="30" as="geometry" />
        </mxCell>
        <mxCell id="aOta-lxbxDsszLZLmQ7L-23" style="shape=partialRectangle;collapsible=0;dropTarget=0;pointerEvents=0;fillColor=none;top=0;left=0;bottom=0;right=0;points=[[0,0.5],[1,0.5]];portConstraint=eastwest;" vertex="1" parent="aOta-lxbxDsszLZLmQ7L-1">
          <mxGeometry y="240" width="180" height="30" as="geometry" />
        </mxCell>
        <mxCell id="aOta-lxbxDsszLZLmQ7L-24" style="shape=partialRectangle;connectable=0;fillColor=none;top=0;left=0;bottom=0;right=0;editable=1;overflow=hidden;" vertex="1" parent="aOta-lxbxDsszLZLmQ7L-23">
          <mxGeometry width="30" height="30" as="geometry" />
        </mxCell>
        <mxCell id="aOta-lxbxDsszLZLmQ7L-25" value="UCR General Code" style="shape=partialRectangle;connectable=0;fillColor=none;top=0;left=0;bottom=0;right=0;align=left;spacingLeft=6;overflow=hidden;" vertex="1" parent="aOta-lxbxDsszLZLmQ7L-23">
          <mxGeometry x="30" width="150" height="30" as="geometry" />
        </mxCell>
        <mxCell id="aOta-lxbxDsszLZLmQ7L-26" style="shape=partialRectangle;collapsible=0;dropTarget=0;pointerEvents=0;fillColor=none;top=0;left=0;bottom=0;right=0;points=[[0,0.5],[1,0.5]];portConstraint=eastwest;" vertex="1" parent="aOta-lxbxDsszLZLmQ7L-1">
          <mxGeometry y="270" width="180" height="30" as="geometry" />
        </mxCell>
        <mxCell id="aOta-lxbxDsszLZLmQ7L-27" style="shape=partialRectangle;connectable=0;fillColor=none;top=0;left=0;bottom=0;right=0;editable=1;overflow=hidden;" vertex="1" parent="aOta-lxbxDsszLZLmQ7L-26">
          <mxGeometry width="30" height="30" as="geometry" />
        </mxCell>
        <mxCell id="aOta-lxbxDsszLZLmQ7L-28" value="UCR Number" style="shape=partialRectangle;connectable=0;fillColor=none;top=0;left=0;bottom=0;right=0;align=left;spacingLeft=6;overflow=hidden;" vertex="1" parent="aOta-lxbxDsszLZLmQ7L-26">
          <mxGeometry x="30" width="150" height="30" as="geometry" />
        </mxCell>
      </root>
    </mxGraphModel>
  </diagram>
</mxfile>
